<svg id="Layer_1" xmlns="http://www.w3.org/2000/svg" viewBox="0 0 397.9 55.3">
    <style>
        .st0 {
            fill: #8d183c
        }

        .st1 {
            fill: #b1bb36
        }

        .st2 {
            fill: #55bceb
        }

        .st3 {
            fill: #7f2346
        }
    </style>
    <path class="st0"
        d="M120.6 33.2l-.2.2-6.7.1-.2-.2 1.3-5.4 1.8-7.5c1.4-5.9 1.8-7.7 3.1-14.1l.3-.2h9.9l6.7-.1.2.2-1.2 4.4-.3.2h-9.6l-1.5 6.7 8.9-.2.2.3c-.7 2.1-.9 2.6-1.3 4.4l-.3.2H123l-1 4.7" />
    <path class="st0"
        d="M149.4 31.5c-2.3 1.8-4.8 2.4-7.8 2.4-2.1 0-4.8-.4-6.7-2-1.7-1.5-2.6-3.6-2.6-6.5 0-3.6 1.9-12.9 12.2-12.9 2.5 0 5 .5 6.9 2.2 2 1.8 2.5 4 2.5 6.3 0 1.3-.2 2.6-.5 3.9-.7 2.5-1.9 4.9-4 6.6m-2.1-11.4c0-1.4-.5-3.4-2.8-3.4-1.9 0-2.8 1.1-3.2 1.6-1.5 1.9-2.3 6.3-2.3 8.1 0 .9.1 1.4.2 1.7.4 1.2 1.5 1.9 2.8 1.9 1.2 0 2.2-.7 2.9-1.5.4-.5 1.3-1.6 2.1-5 .1-1.1.3-2.2.3-3.4zM160.1 33.2l-.3.2-6.6.2-.2-.3 1.5-5.7.8-3.4c1.1-4.8 1.4-6 2.1-10.5l.3-.2c3.1-.4 3.8-.5 6.9-1.1l.2.3-1.2 4.3c.4-.7.8-1.5 1.4-2.2.8-1 2.3-2.4 4.3-2.4 1 0 1.5.2 2 .5l.2.4c-1.6 3.6-1.8 4-2.7 6.2l-.4.1c-.8-.5-1.3-.9-2.1-.9-.7 0-1.4.3-2 .8-1.1 1-1.5 2.1-2.5 6.2l-.9 4" />
    <path class="st0"
        d="M186.2 27.5c-.3.9-.5 1.7-.8 2.6-.2.8-.4 1.6-.6 2.3l-.2.2c-1 .5-2.9 1.4-6.8 1.4-5.6 0-7.4-2.1-8.1-2.9-1.5-1.7-1.8-3.7-1.8-5.7 0-5.7 3.6-12.8 11.9-12.8 1.8 0 3.7.3 5 1.1 2.9 1.6 3.1 4.5 3.1 6.1 0 1.8-.4 3.3-.7 4.6l-.3.2c-5.7 0-7.5 0-12.5.1 0 .4-.1.8-.1 1.2 0 2.3 1.6 3.6 4.8 3.6 2.4 0 4.7-.9 6.7-2.2m-3.7-6.7c.1-.6.2-1.2.2-1.7 0-1.3-.8-2.6-2.7-2.6-.7 0-1.7.2-2.8 1.2-1.1 1-1.5 2.2-1.8 3.2l7.1-.1zM186.8 31.7l1.2-4.1.4-.1c.8.8 2.5 2.5 5.5 2.5s3.4-1.7 3.4-2.2c0-1.3-1.3-1.9-2.7-2.6l-.9-.4c-2.1-1-4.1-2.2-4.1-5.3 0-1 .4-7 9.1-7 2.2 0 4.4.4 6.7 1.6l.2.3c-.6 2-.8 2.4-1.2 4.1l-.4.1c-.4-.4-.7-.8-1.2-1.1-1-.7-2.5-1.1-3.6-1.1-2.1 0-3 1-3 2 0 1.2 1.4 1.8 2.4 2.3l.9.4c1.7.9 4.6 2.2 4.6 5.7 0 1.9-1 7.3-9.7 7.3-4 0-6.2-1.2-7.4-1.9M212.5 26.5c-.7 3.3-.8 4.1-1.3 6.8l-.3.2-6.8.2-.2-.3c1.2-4.5 1.4-5.4 2.6-10.4l.4-1.9c.8-3.3.9-4.2 1.3-7.3l.3-.3c3.3-.4 4.1-.5 7-1.1l.2.3c-1 3.8-1.3 5.2-2.6 10.9m3.3-14.9l-.3.3-6.5.9-.2-.3 1.1-5.2.4-.3 6.5-.9.2.3-1.2 5.2zM237.5 13.2c-1.3 5-1.5 6.1-2.9 12.1l-1.2 5.4c-1.3 6.1-1.3 7.1-5.3 9.1-2.2 1.1-4.8 1.4-6.4 1.4-2.1 0-4.3-.3-6.3-1.2-1-.5-1.5-.9-2.2-1.4l-.1-.3L215 34h.4c.7.8 2.3 2.6 5.7 2.6 4.4 0 4.5-1 5-3l.3-1.3c-1.3.8-2.8 1.6-5.3 1.6-4.4 0-6.7-3.3-6.7-7.2 0-1.5.3-4.6 2-7.6 3.4-5.9 9.1-6 13.7-6.1l7.1-.1m-8.1 4.4c-1.5 0-3.5.1-5.2 1.7-1.7 1.6-2.5 4.6-2.5 6.8 0 .5 0 3.8 3.1 3.8.7 0 1.5-.2 2-.5.3-.2.6-.4.9-.7l2.6-11h-.9zM254.8 33.2l-.3.2-6.5.2-.2-.3 1-4.1 1.1-4.8c.6-2.6.9-4.1.9-5 0-1.2-.6-2.2-2-2.2s-2.6.9-3.2 1.4l-1.3 5.7c-.9 3.9-1 4.6-1.8 8.9l-.3.2-6.5.1-.2-.2 3.4-14.1c.8-3.3 1.5-6.6 2.2-9.9.5-2.6.6-3.4.8-5.4l.3-.3 6.9-1.1.2.3-2.9 11.9c1.5-1 3.6-2.3 6.2-2.3 1.8 0 5.2.8 5.2 5 0 1.3-.3 2.7-.8 4.8l-1 4.5M268.8 33.1l-.3.3c-1.3.2-2.2.4-3.6.4-3.4 0-6-1-6-4.5 0-1.6.8-4.5 1.3-6.7l1.3-5.3-2.8.1-.2-.3 1.1-3.9.4-.2h2.6l1.1-5 .3-.3c3-.7 3.8-.9 6.5-1.6l.2.2-.9 3.2-.8 3.5 4-.1.2.3c-.6 1.6-.7 2.1-1.2 3.9l-.3.3-3.6-.1-1.7 6.8c-.2.9-.8 3-.8 3.7 0 1.2 1 1.6 1.9 1.6 1 0 1.6-.2 2.3-.5l.2.2" />
    <path class="st1"
        d="M288.3 6h14.5c6.1 0 8.4 2.1 8.4 6.2 0 3.6-1.8 5.9-5.2 6.8v.1c2.6.6 4.3 3 4.3 5.6 0 6.8-5.4 9.5-11.6 9.5h-16.2m9.8-6.7h5.6c1.5 0 3.7-.6 3.7-2.8 0-2.1-1.5-2.4-3.4-2.4h-4.8l-1.1 5.2zm2.2-10.5h4.9c1.4 0 3.1-.5 3.1-2.2 0-1.7-1.1-2-2.7-2h-4.5l-.8 4.2zM323.4 6h8.5l4.4 28.2h-8.5l-.5-4h-9.2l-2.2 4h-8.8m14.1-10.1h5.4l-.9-8.4h-.1l-4.4 8.4z" />
    <path class="st1"
        d="M342 6h8.6l5.3 15.4h.1L359.1 6h8.3l-5.9 28.2h-8.6l-5.1-15.8h-.1l-3.3 15.8h-8.2M370.1 6h8.7l-1.9 9.3h.1l9.6-9.3h11.3l-13.5 11.6 8.1 16.6h-9.7l-5.2-11-2.9 2.7-1.7 8.3h-8.7" />
    <path class="st0"
        d="M106.6 22.5S94 24.2 74.1 7.6C54.2-9.1 11.9 5.6.9 15.2c14-6.3 40.5-12 56.8-3.6 11.9 6.1 35 19.1 48.9 10.9" />
    <path class="st1"
        d="M0 27.8c.5-2.7 33.5-30.3 70.5-6.6 17.7 8.2 29 6.3 32 5.5 3-.8-27 12.4-43.9-.3C41.7 13.7 13.8 17.9 0 27.8" />
    <path class="st2"
        d="M.9 35.1s16-15.8 36-11.3c19.9 4.5 12.2 7 18.7 7.4-10.6 1.5-11.9-.6-19.3-3.3-7.7-2.7-17.6-4.4-35.4 7.2" />
    <g>
        <path class="st3"
            d="M119.2 46c.5.5.7 1 .7 1.8s-.2 1.3-.7 1.8c-.5.5-1.2.7-2.2.7h-1.6v3.4h-1.1v-8.3h2.7c1-.1 1.7.1 2.2.6zm-3.8 3.3h1.6c.6 0 1-.1 1.3-.4s.4-.7.4-1.2c0-1-.6-1.6-1.8-1.6h-1.6v3.2zM121.3 53.6v-8.9h1.1v8.9h-1.1zM124.6 52.8c-.6-.6-.9-1.5-.9-2.5s.3-1.8.9-2.4c.6-.6 1.3-.9 2.2-.9.6 0 1.1.1 1.5.4.4.3.7.6 1 1V47h1.1v6.6h-1.1v-1.3c-.2.4-.5.8-1 1s-.9.4-1.5.4c-.8 0-1.6-.3-2.2-.9zm4.1-.7c.4-.4.7-1 .7-1.8s-.2-1.3-.7-1.8c-.4-.4-1-.7-1.6-.7s-1.1.2-1.6.6c-.4.4-.7 1-.7 1.8s.2 1.3.7 1.8c.4.5 1 .7 1.6.7s1.1-.1 1.6-.6zM133.3 45.8c-.1.1-.3.2-.5.2s-.4-.1-.5-.2c-.1-.1-.2-.3-.2-.5s.1-.4.2-.5.3-.2.5-.2.4.1.5.2.2.3.2.5c0 .1-.1.3-.2.5zm-1.1 7.8V47h1.1v6.6h-1.1zM136.2 47v1.1c.4-.8 1.2-1.2 2.1-1.2.7 0 1.3.2 1.8.7.5.5.7 1.2.7 2.1v3.9h-1.1v-3.7c0-.7-.2-1.2-.5-1.5-.3-.3-.8-.5-1.3-.5s-1 .2-1.3.5c-.3.3-.5.8-.5 1.5v3.7H135V47h1.2zM141.9 47h1.2l2 5.6 2-5.6h1.2l-2.6 6.6h-1.2l-2.6-6.6zM150.4 45.8c-.1.1-.3.2-.5.2s-.4-.1-.5-.2c-.1-.1-.2-.3-.2-.5s.1-.4.2-.5.3-.2.5-.2.4.1.5.2.2.3.2.5c0 .1-.1.3-.2.5zm-1.1 7.8V47h1.1v6.6h-1.1zM155 53.7c-.9 0-1.7-.3-2.3-.9-.6-.6-.9-1.4-.9-2.5s.3-1.8.9-2.5c.6-.6 1.4-.9 2.3-.9 1 0 1.7.3 2.3.9s.9 1.3.9 2.2v.6H153c0 .7.2 1.2.6 1.6.4.4.9.6 1.5.6.4 0 .8-.1 1.1-.3.3-.2.5-.5.7-.8h1.2c-.2.6-.6 1.1-1.1 1.4-.6.4-1.3.6-2 .6zm1.4-5.3c-.4-.4-.9-.6-1.5-.6s-1.1.2-1.4.6c-.4.4-.6.9-.6 1.5h4.1c0-.6-.2-1.1-.6-1.5zM167.1 47h1.1l-2.1 6.6H165l-1.5-5.2-1.5 5.2h-1.1l-2.1-6.6h1.1l1.5 5.5L163 47h1.1l1.5 5.5 1.5-5.5zM168.8 52.8h1.1c.4 1.7 0 2.5-1.1 2.5v-.5c.2 0 .3 0 .4-.1.1-.1.1-.2.1-.5v-.3h-.6v-1.1zM183.5 45.3v8.3h-1.1v-6.1l-2.8 6.1h-.6l-2.8-6.1v6.1h-1.1v-8.3h1.1l3.1 6.8 3.1-6.8h1.1zM190.8 45.3h1.1v8.3h-1.1l-4.4-6.6v6.6h-1.1v-8.3h1.1l4.4 6.6v-6.6zM197.7 44.1h1.1v10.8h-1.1V44.1zM205.6 50.2v3.4h-1.1v-8.3h2.7c.9 0 1.7.2 2.1.7.5.5.7 1 .7 1.7s-.2 1.2-.5 1.6c-.4.4-.9.7-1.6.8l2.3 3.5h-1.4l-2.2-3.4h-1zm0-4v3.1h1.6c.6 0 1-.1 1.3-.4s.4-.7.4-1.2c0-1-.6-1.6-1.8-1.6h-1.5zM212.4 52.8c-.6-.6-.9-1.4-.9-2.5 0-1 .3-1.8.9-2.5s1.4-.9 2.4-.9 1.7.3 2.4.9.9 1.4.9 2.5-.3 1.8-1 2.5-1.5.9-2.4.9-1.7-.3-2.3-.9zm2.3 0c.6 0 1.2-.2 1.6-.7.5-.4.7-1.1.7-1.8s-.2-1.4-.6-1.8c-.4-.4-1-.7-1.6-.7-.6 0-1.1.2-1.6.7-.4.4-.6 1.1-.6 1.8s.2 1.4.6 1.8c.4.5.9.7 1.5.7zM220 52.8c-.6-.6-.9-1.4-.9-2.5s.3-1.8.9-2.5c.6-.6 1.4-.9 2.3-.9.8 0 1.4.2 1.9.6.5.4.8.9 1 1.6H224c-.1-.4-.3-.7-.7-.9-.3-.2-.7-.3-1.2-.3-.6 0-1.1.2-1.5.7-.4.4-.6 1.1-.6 1.8s.2 1.4.6 1.8c.4.4.9.7 1.5.7.9 0 1.5-.4 1.8-1.2h1.2c-.2.6-.6 1.2-1.1 1.5s-1.1.6-1.9.6c-.8-.1-1.5-.4-2.1-1zM227.8 44.7v3.4c.4-.8 1.2-1.2 2.1-1.2.7 0 1.3.2 1.8.7.5.5.7 1.2.7 2.1v3.9h-1.1v-3.7c0-.7-.2-1.2-.5-1.5-.3-.3-.8-.5-1.3-.5-.6 0-1 .2-1.3.5-.3.3-.5.8-.5 1.5v3.7h-1.1v-8.9h1.2zM237 53.7c-.9 0-1.7-.3-2.3-.9-.6-.6-.9-1.4-.9-2.5s.3-1.8.9-2.5c.6-.6 1.4-.9 2.3-.9s1.7.3 2.3.9.9 1.3.9 2.2v.6H235c0 .7.2 1.2.6 1.6.4.4.9.6 1.5.6.4 0 .8-.1 1.1-.3.3-.2.5-.5.7-.8h1.2c-.2.6-.6 1.1-1.1 1.4s-1.2.6-2 .6zm1.5-5.3c-.4-.4-.9-.6-1.5-.6s-1.1.2-1.4.6c-.4.4-.6.9-.6 1.5h4.1c0-.6-.2-1.1-.6-1.5zM241.3 48.9c0-.6.2-1 .7-1.4.5-.4 1.1-.6 1.8-.6s1.3.2 1.7.6c.4.4.6.9.7 1.5h-1.1c0-.4-.1-.7-.4-.9-.2-.2-.6-.3-1-.3s-.7.1-1 .3c-.2.2-.4.4-.4.8s.1.5.4.7c.3.2.6.3 1 .4.4.1.8.2 1.1.3.4.1.7.3 1 .6.3.3.4.7.4 1.2s-.2.9-.7 1.3-1.1.5-1.8.5-1.3-.2-1.8-.6c-.4-.4-.7-.9-.7-1.5h1.1c0 .4.1.7.4.9.2.2.6.3 1 .3s.8-.1 1-.3c.2-.2.4-.4.4-.7 0-.3-.1-.5-.3-.7-.2-.2-.4-.3-.7-.3-.3-.1-.6-.1-.9-.2s-.7-.2-.9-.3c-.3-.1-.5-.3-.7-.5s-.3-.7-.3-1.1zM250.1 52.7h.9v.9h-1.1c-1.1 0-1.7-.6-1.7-1.7v-4h-.9V47h.9v-1.6h1.1V47h1.7v.9h-1.7v4c0 .3.1.5.2.6 0 .2.3.2.6.2zM254.9 53.7c-.9 0-1.7-.3-2.3-.9s-.9-1.4-.9-2.5.3-1.8.9-2.5c.6-.6 1.4-.9 2.3-.9 1 0 1.7.3 2.3.9s.9 1.3.9 2.2v.6h-5.2c0 .7.2 1.2.6 1.6.4.4.9.6 1.5.6.4 0 .8-.1 1.1-.3.3-.2.5-.5.7-.8h1.2c-.2.6-.6 1.1-1.1 1.4-.6.4-1.2.6-2 .6zm1.5-5.3c-.4-.4-.9-.6-1.5-.6s-1.1.2-1.4.6c-.4.4-.6.9-.6 1.5h4.1c0-.6-.2-1.1-.6-1.5zM260.6 47v1.1c.4-.8 1.1-1.2 2-1.2V48h-.3c-.6 0-1 .1-1.3.4s-.4.8-.4 1.5v3.6h-1.1V47h1.1zM263.5 52.8h1.1c.4 1.7 0 2.5-1.1 2.5v-.5c.2 0 .3 0 .4-.1.1-.1.1-.2.1-.5v-.3h-.6v-1.1zM278.2 45.3v8.3h-1.1v-6.1l-2.8 6.1h-.7l-2.8-6.1v6.1h-1.1v-8.3h1.1l3.1 6.8 3.1-6.8h1.2zM285.5 45.3h1.1v8.3h-1.1l-4.4-6.6v6.6H280v-8.3h1.1l4.4 6.6v-6.6z" />
    </g>
</svg>
